HIERARCHY
ROOT hip
{
	OFFSET 0.000000 0.000000 0.000000 
	CHANNELS 6 Xposition Yposition Zposition Xrotation Zrotation Yrotation
	JOINT abdomen
	{
		OFFSET 0.000000 3.402643 0.000000 
		CHANNELS 3 Xrotation Zrotation Yrotation
		JOINT chest
		{
			OFFSET 0.000000 8.438565 -0.680529 
			CHANNELS 3 Xrotation Zrotation Yrotation
			JOINT neck
			{
				OFFSET 0.000000 10.207942 -0.272212 
				CHANNELS 3 Xrotation Zrotation Yrotation
				JOINT head
				{
					OFFSET 0.000000 3.130431 0.000000 
					CHANNELS 3 Xrotation Zrotation Yrotation
					End Site
					{
						OFFSET 0.000000 3.130435 0.000000 
					}
				}
			}
			JOINT lCollar
			{
				OFFSET 3.470700 6.669187 -0.816635 
				CHANNELS 3 Yrotation Zrotation Xrotation
				JOINT lShldr
				{
					OFFSET 3.198488 0.000000 0.000000 
					CHANNELS 3 Zrotation Yrotation Xrotation
					JOINT lForeArm
					{
						OFFSET 10.139888 0.000000 0.000000 
						CHANNELS 3 Yrotation Zrotation Xrotation
						JOINT lHand
						{
							OFFSET 8.370511 0.000000 0.000000 
							CHANNELS 3 Zrotation Yrotation Xrotation
							End Site
							{
								OFFSET 4.083176 0.000000 0.000000 
							}
						}
					}
				}
			}
			JOINT rCollar
			{
				OFFSET -3.470700 6.669187 -0.816635 
				CHANNELS 3 Yrotation Zrotation Xrotation
				JOINT rShldr
				{
					OFFSET -3.198488 0.000000 0.000000 
					CHANNELS 3 Zrotation Yrotation Xrotation
					JOINT rForeArm
					{
						OFFSET -10.139888 0.000000 0.000000 
						CHANNELS 3 Yrotation Zrotation Xrotation
						JOINT rHand
						{
							OFFSET -8.370511 0.000000 0.000000 
							CHANNELS 3 Zrotation Yrotation Xrotation
							End Site
							{
								OFFSET -4.083176 0.000000 0.000000 
							}
						}
					}
				}
			}
		}
	}
	JOINT lThigh
	{
		OFFSET 5.308129 -1.633274 1.361059 
		CHANNELS 3 Xrotation Zrotation Yrotation
		JOINT lShin
		{
			OFFSET -2.041588 -20.007561 0.000000 
			CHANNELS 3 Xrotation Zrotation Yrotation
			JOINT lFoot
			{
				OFFSET 0.000000 -19.190928 -1.224953 
				CHANNELS 3 Xrotation Yrotation Zrotation
				End Site
				{
					OFFSET 0.000000 -2.449906 4.627600 
				}
			}
		}
	}
	JOINT rThigh
	{
		OFFSET -5.308129 -1.633274 1.361059 
		CHANNELS 3 Xrotation Zrotation Yrotation
		JOINT rShin
		{
			OFFSET 2.041588 -20.007561 0.000000 
			CHANNELS 3 Xrotation Zrotation Yrotation
			JOINT rFoot
			{
				OFFSET 0.000000 -19.190928 -1.224953 
				CHANNELS 3 Xrotation Yrotation Zrotation
				End Site
				{
					OFFSET 0.000000 -2.449906 4.627600 
				}
			}
		}
	}
}
MOTION
Frames: 9
Frame Time: 0.016667
-4.154509 54.241291 9.085338 0.709211 2.605436 -5.435155 35.215965 -5.507430 -3.217935 -0.215970 -2.613582 8.541145 -9.684748 -5.249369 0.686725 4.345138 -1.269180 1.347975 6.001784 -11.812725 -0.615954 -37.783283 20.961740 -16.573008 -126.971794 -5.000000 -12.256033 -26.418686 -8.109001 22.300617 11.844668 -9.687983 0.429461 68.440178 4.102072 -2.364665 99.059944 5.000000 -3.275134 21.008692 -20.809687 25.906031 -22.131676 -1.443489 -10.650208 19.328587 -6.960674 -2.815522 -10.649912 15.146402 -5.509964 41.089069 -8.858415 -25.144413 65.915100 1.397139 3.210660 23.602886 -14.751967 15.101250 
-4.007030 53.357376 12.208961 0.669377 2.653895 -2.414495 35.413410 -3.297111 -4.472285 -0.439288 -2.869673 7.437516 -10.648350 -5.687013 0.862928 3.493180 -1.357236 0.947463 5.153924 -14.628394 -0.739740 -36.095051 16.634050 -14.313401 -123.422447 -5.000000 -8.747113 -26.467587 -9.723983 21.023785 10.153246 -5.282222 0.227582 66.796692 3.066865 -2.986625 97.823730 5.000000 -2.804090 21.620977 -19.306238 24.885645 -21.997421 -3.211710 -13.495079 24.438103 -7.953286 -4.121337 -12.173995 14.655612 -3.750595 38.608009 -8.624146 -26.336311 71.169128 0.918012 2.979809 23.877512 -14.367805 15.672874 
-3.771458 53.043770 15.072600 0.979296 2.617157 0.274044 35.705227 -0.847716 -4.362380 -0.268830 -3.360625 6.002819 -12.488108 -7.307703 1.379697 2.215605 -2.285140 -0.215062 3.410775 -17.339054 -0.868887 -36.276333 11.123120 -11.699128 -117.931496 -5.000000 -4.904057 -27.531944 -10.364819 22.029905 8.542341 -1.258858 -0.020170 65.602539 0.989632 -5.049376 97.385979 5.000000 -2.633989 21.742981 -17.433712 23.668295 -21.584824 -4.205768 -13.588702 29.931890 -9.091609 -5.950514 -14.300241 12.679930 -1.355442 33.279873 -8.907003 -25.490911 77.045692 0.663732 3.652481 24.862024 -12.961252 15.629978 
-3.535881 52.730217 17.936213 1.285014 2.564933 2.962136 36.018185 1.580616 -4.235282 -0.101335 -3.841998 4.567303 -14.357918 -8.910575 1.948967 0.965236 -3.251053 -1.349918 1.636693 -20.043015 -1.076336 -36.707703 5.612448 -9.108517 -112.778641 -5.000000 -1.929178 -28.616655 -10.973945 23.038336 6.945917 2.771093 -0.151063 64.488258 -1.123608 -7.078343 96.948120 5.000000 -2.463892 21.797539 -15.576344 22.462221 -21.134106 -5.210582 -13.702553 35.449596 -9.998457 -7.880513 -16.369671 10.629679 1.012402 27.911856 -9.091711 -24.623911 82.939651 0.330247 4.267609 25.832811 -11.583241 15.503634 
-3.536113 52.890232 20.716478 1.167982 0.410114 0.820361 36.386074 3.476066 -1.341857 -0.353967 -3.170781 3.743952 -15.000298 -9.484227 2.139575 1.096644 -4.540394 0.949704 0.843124 -20.169775 -1.082876 -40.067814 2.008876 -5.980159 -110.402946 -1.993407 -0.096486 -28.875502 -10.660171 24.075569 6.907282 2.927141 -0.159145 65.383560 -4.280536 -10.617520 97.509750 5.000000 -2.985558 22.367975 -14.322457 20.494059 -17.371117 -2.431525 -14.053162 35.463612 -9.999102 -8.423779 -19.954010 11.782064 0.906659 19.717897 -8.348555 -18.307119 86.732407 -0.050053 6.604418 23.334656 -11.834374 13.529592 
-3.536365 53.050274 23.496702 1.143972 -1.757347 -1.319237 36.930996 5.339669 1.560649 -0.611122 -2.518139 2.901983 -15.657570 -10.065882 2.341367 1.172479 -5.830464 3.258135 0.039769 -20.296537 -1.089410 -43.616810 -1.392068 -2.649558 -108.150742 2.396381 1.388833 -29.123070 -10.344900 25.110153 6.868671 3.083189 -0.167226 66.488159 -7.376677 -14.232068 98.104271 5.000000 -3.565730 22.868250 -13.060534 18.554085 -13.616298 0.343522 -14.195067 35.499310 -9.998681 -8.941736 -23.562115 12.989862 0.956930 11.670684 -6.744623 -12.174783 90.511063 -0.586471 8.902406 20.837589 -11.872846 11.593922 
-3.614143 53.382011 26.333288 1.194910 -3.558911 -3.199925 37.320183 6.578317 3.573464 -0.771989 -1.747793 1.543408 -16.217718 -9.389015 2.243721 0.860868 -6.118775 6.010050 -0.484130 -19.457876 -1.052040 -46.878246 -3.424632 -0.463600 -108.629066 5.000000 2.418953 -29.123066 -10.759247 24.565424 6.789995 3.074604 -0.157039 67.036186 -9.893009 -17.293091 99.019417 5.000000 -4.438136 23.190847 -12.679125 17.601435 -8.582050 2.607108 -12.815431 32.881748 -9.991751 -8.017231 -25.097429 12.875765 -0.068856 4.392194 -4.323947 -6.884769 91.399208 -0.771348 10.122583 18.432875 -13.609155 10.272840 
-3.743606 53.828213 29.207455 1.309284 -5.117877 -4.922825 37.545750 7.415636 4.982546 -0.886195 -0.908200 -0.175916 -16.735439 -7.866751 1.925014 0.336511 -5.690639 9.038533 -0.837131 -17.965893 -0.965698 -49.895767 -4.596658 0.917877 -110.888428 5.000000 3.428428 -28.936459 -11.669781 22.965374 6.682203 2.938068 -0.149968 67.201180 -12.067255 -19.983171 100.223427 5.000000 -5.608788 23.421318 -12.884977 17.302132 -2.581823 4.328220 -10.321805 28.494783 -9.985915 -6.193766 -25.331221 11.917624 -1.844733 -2.265419 -1.298853 -2.267504 90.379585 -0.625015 10.643754 15.885230 -16.379030 9.324770 
-3.903975 54.281986 32.120106 1.346725 -6.523934 -6.241856 37.754658 8.183120 6.046071 -0.907549 -0.029290 -1.865239 -17.184551 -6.335946 1.597986 -0.108459 -5.374306 11.731893 -1.141363 -16.317860 -0.872115 -52.785744 -5.700061 2.137187 -113.197792 5.000000 4.464466 -28.770515 -12.339450 21.688210 6.545105 2.791779 -0.142391 67.552025 -14.264496 -22.906525 101.402344 5.000000 -6.851707 23.518072 -12.926494 16.796812 3.270057 5.719798 -7.899205 24.611288 -8.993489 -4.638403 -25.158405 11.032961 -3.479946 -8.150768 1.923384 1.624150 88.520309 -0.340999 10.721190 13.290082 -18.629446 8.147840 
